<?xml version="1.0" encoding="UTF-8"?>
<svg width="14px" height="11px" viewBox="0 0 14 11" version="1.1" xmlns="http://www.w3.org/2000/svg" xmlns:xlink="http://www.w3.org/1999/xlink">
    <!-- Generator: Sketch 59.1 (86144) - https://sketch.com -->
    <title>Shape</title>
    <desc>Created with Sketch.</desc>
    <g id="足篮球资料库" stroke="none" stroke-width="1" fill="none" fill-rule="evenodd">
        <g id="足球-英超/意甲/西甲-联赛积分榜" transform="translate(-346.000000, -78.000000)" fill="#4A4A4A" fill-rule="nonzero">
            <g id="更多" transform="translate(329.000000, 73.000000)">
                <g id="Group" transform="translate(17.000000, 4.500000)">
                    <path d="M1.11125,2.035375 L12.88875,2.035375 C13.2615,2.035375 13.5625,1.741375 13.5625,1.379125 C13.5625,1.016875 13.2615,0.722875 12.88875,0.722875 L1.11125,0.722875 C0.739375,0.722875 0.4375,1.016875 0.4375,1.379125 C0.4375,1.741375 0.739375,2.035375 1.11125,2.035375 Z M12.88875,5.316625 L1.11125,5.316625 C0.7385,5.316625 0.4375,5.610625 0.4375,5.972875 C0.4375,6.335125 0.7385,6.629125 1.11125,6.629125 L12.88875,6.629125 C13.2615,6.629125 13.5625,6.335125 13.5625,5.972875 C13.5625,5.610625 13.25975,5.316625 12.88875,5.316625 L12.88875,5.316625 Z M12.88875,9.964625 L1.11125,9.964625 C0.739375,9.964625 0.4375,10.258625 0.4375,10.620875 C0.4375,10.983125 0.739375,11.277125 1.11125,11.277125 L12.88875,11.277125 C13.2615,11.277125 13.5625,10.983125 13.5625,10.620875 C13.5625,10.258625 13.2615,9.964625 12.88875,9.964625 Z" id="Shape"></path>
                </g>
            </g>
        </g>
    </g>
</svg>