<?xml version="1.0" encoding="UTF-8"?>
<svg width="343px" height="781px" viewBox="0 0 343 781" version="1.1" xmlns="http://www.w3.org/2000/svg" xmlns:xlink="http://www.w3.org/1999/xlink">
    <g stroke="none" stroke-width="1" fill="none" fill-rule="evenodd">
        <g>
            <rect fill="#2BA86D" x="0" y="0" width="343" height="781" rx="8"></rect>
            <path d="M8,0 L335,0 C339.418278,-8.11624501e-16 343,3.581722 343,8 L343,71 L343,71 L0,71 L0,8 C-5.41083001e-16,3.581722 3.581722,8.11624501e-16 8,0 Z" fill-opacity="0.3" fill="#32C980"></path>
            <rect fill-opacity="0.3" fill="#32C980" x="0" y="142" width="343" height="71"></rect>
            <rect fill-opacity="0.3" fill="#32C980" x="0" y="426" width="343" height="71"></rect>
            <rect fill-opacity="0.3" fill="#32C980" x="0" y="284" width="343" height="71"></rect>
            <rect fill-opacity="0.3" fill="#32C980" x="0" y="568" width="343" height="71"></rect>
            <path d="M0,710 L343,710 L343,773 C343,777.418278 339.418278,781 335,781 L8,781 C3.581722,781 5.41083001e-16,777.418278 0,773 L0,710 L0,710 Z" fill-opacity="0.3" fill="#32C980"></path>
            <rect fill="#31B878" x="0" y="71" width="343" height="71"></rect>
            <rect fill="#31B878" x="0" y="355" width="343" height="71"></rect>
            <rect fill="#31B878" x="0" y="213" width="343" height="71"></rect>
            <rect fill="#31B878" x="0" y="497" width="343" height="71"></rect>
            <rect fill="#31B878" x="0" y="639" width="343" height="71"></rect>
        </g>
        <g transform="translate(10.000000, 34.500000)">
            <path d="M118,83.5260797 C118.437,84.6450797 118.903,85.7510797 119.422,86.8270797 C121.732,91.6210797 124.832,95.9630797 128.553,99.6840797 C131.743,102.87408 135.388,105.60708 139.384,107.77708 C146.043,111.39508 153.675,113.45008 161.787,113.45008 C169.899,113.45008 177.53,111.39508 184.19,107.77708 C188.186,105.60708 191.832,102.87408 195.021,99.6840797 C198.742,95.9630797 201.842,91.6210797 204.152,86.8270797 C204.671,85.7510797 205.137,84.6450797 205.574,83.5260797 L118,83.5260797 Z" stroke="#5BC592" stroke-width="3"></path>
            <rect stroke="#5AC693" stroke-width="3" x="1.5" y="1.5" width="320" height="709" rx="8"></rect>
            <path d="M1.50357406,1.48523635 L1.50357406,7.98523635 C1.50357406,12.4035143 5.08529607,15.9852363 9.50357406,15.9852363 L15.5035741,15.9852363 L15.5035741,15.9852363 C15.5035741,7.97698301 9.23549406,1.48523635 1.50357406,1.48523635 Z" stroke="#5BC592" stroke-width="3" transform="translate(8.503574, 8.735236) rotate(-270.000000) translate(-8.503574, -8.735236) "></path>
            <path d="M307.456936,695.995081 L307.456936,702.495081 C307.456936,706.913359 311.038658,710.495081 315.456936,710.495081 L321.456936,710.495081 L321.456936,710.495081 C321.456936,702.486828 315.188856,695.995081 307.456936,695.995081 Z" stroke="#5BC592" stroke-width="3" transform="translate(314.456936, 703.245081) rotate(-90.000000) translate(-314.456936, -703.245081) "></path>
            <path d="M307.51689,1.49819538 L307.51689,7.99819538 C307.51689,12.4164734 311.098612,15.9981954 315.51689,15.9981954 L321.51689,15.9981954 L321.51689,15.9981954 C321.51689,7.98994205 315.24881,1.49819538 307.51689,1.49819538 Z" stroke="#5BC592" stroke-width="3" transform="translate(314.516890, 8.748195) rotate(-180.000000) translate(-314.516890, -8.748195) "></path>
            <path d="M1.44362065,695.982122 L1.44362065,702.482122 C1.44362065,706.9004 5.02534265,710.482122 9.44362065,710.482122 L15.4436206,710.482122 L15.4436206,710.482122 C15.4436206,702.473869 9.17554065,695.982122 1.44362065,695.982122 Z" stroke="#5BC592" stroke-width="3" transform="translate(8.443621, 703.232122) rotate(-360.000000) translate(-8.443621, -703.232122) "></path>
            <path d="M117.713,598.545101 C118.15,599.664101 118.616,600.770101 119.135,601.846101 C121.445,606.640101 124.545,610.982101 128.266,614.703101 C131.456,617.893101 135.101,620.626101 139.097,622.796101 C145.756,626.414101 153.388,628.469101 161.5,628.469101 C169.612,628.469101 177.243,626.414101 183.903,622.796101 C187.899,620.626101 191.545,617.893101 194.734,614.703101 C198.455,610.982101 201.555,606.640101 203.865,601.846101 C204.384,600.770101 204.85,599.664101 205.287,598.545101 L117.713,598.545101 Z" stroke="#5BC592" stroke-width="3" transform="translate(161.500000, 613.507101) rotate(-180.000000) translate(-161.500000, -613.507101) "></path>
            <rect stroke="#5AC693" stroke-width="3" transform="translate(161.500000, 669.495180) rotate(-180.000000) translate(-161.500000, -669.495180) " x="60.5" y="628.49518" width="202" height="82"></rect>
            <rect stroke="#5AC693" stroke-width="3" transform="translate(161.500000, 692.502562) rotate(-180.000000) translate(-161.500000, -692.502562) " x="112" y="674.509944" width="99" height="35.9852363"></rect>
            <circle stroke="#5AC693" stroke-width="3" cx="161.5" cy="356" r="45.5"></circle>
            <rect stroke="#5AC693" stroke-width="3" x="60.5" y="1.5" width="202" height="82"></rect>
            <rect stroke="#5AC693" stroke-width="3" x="112" y="1.5" width="99" height="35.9852363"></rect>
            <rect fill="#5AC693" x="9.9475983e-14" y="354.5" width="116.072073" height="3"></rect>
            <rect fill="#5AC693" x="206.927927" y="354.5" width="116.072073" height="3"></rect>
        </g>
        <g transform="translate(150.000000, 370.985236)" fill="#5AC693">
            <polygon points="2 7 29 7 29 3 2 3"></polygon>
            <polygon points="3 10 2 15 8 15 9 10"></polygon>
            <polygon points="18.5 10 12.5 10 11.5 15 17.5 15"></polygon>
            <polygon points="21 15 27 15 28 10 22 10"></polygon>
            <polygon points="11.9997 17.0002 11.6997 20.0002 -0.0003 20.0002 -0.0003 22.9992 3.4007 22.9992 1.9997 37.0002 6.4997 37.0002 7.9007 22.9992 11.4007 22.9992 9.9997 37.0002 16.0007 37.0002 17.3997 22.9992 20.4007 22.9992 18.9997 37.0002 23.4997 37.0002 24.9007 22.9992 27.9997 22.9992 27.9997 20.0002 17.7007 20.0002 17.9997 17.0002"></polygon>
            <polygon points="30.0001 9.0001 34.0001 9.0001 30.9991 13.0001 35.0001 17.0001 30.9991 25.0001 35.0001 28.0001 30.0001 37.0001 37.0001 37.0001 42.0001 28.0001 38.0001 25.0001 42.0001 17.0001 38.0001 13.0001 44.0001 0.0001"></polygon>
        </g>
    </g>
</svg>