<?xml version="1.0" encoding="UTF-8"?>
<svg width="24px" height="24px" viewBox="0 0 24 24" version="1.1" xmlns="http://www.w3.org/2000/svg" xmlns:xlink="http://www.w3.org/1999/xlink">
    <defs>
        <circle id="path-1" cx="12" cy="12" r="12"></circle>
        <filter x="-29.2%" y="-20.8%" width="158.3%" height="158.3%" filterUnits="objectBoundingBox" id="filter-2">
            <feOffset dx="0" dy="2" in="SourceAlpha" result="shadowOffsetOuter1"></feOffset>
            <feGaussianBlur stdDeviation="2" in="shadowOffsetOuter1" result="shadowBlurOuter1"></feGaussianBlur>
            <feColorMatrix values="0 0 0 0 0.0330615942   0 0 0 0 0.0330615942   0 0 0 0 0.0330615942  0 0 0 0.3 0" type="matrix" in="shadowBlurOuter1"></feColorMatrix>
        </filter>
    </defs>
    <g stroke="none" stroke-width="1" fill="none" fill-rule="evenodd">
        <g opacity="0.289248512">
            <use fill="black" fill-opacity="1" filter="url(#filter-2)" xlink:href="#path-1"></use>
            <use fill="#000000" fill-rule="evenodd" xlink:href="#path-1"></use>
        </g>
        <path d="M11.9560477,16.6630937 C11.5022601,16.6630937 11.1326806,16.2958532 11.1326806,15.8397265 L11.1326806,15.2128448 C11.1069504,14.6561363 11.1818019,14.1625839 11.3619135,13.7321874 C11.5396859,13.301791 11.8952308,12.9134985 12.426209,12.5696492 L12.405157,12.5696492 C12.868301,12.2117652 13.2589326,11.8936461 13.5770517,11.6152918 C13.8951708,11.3369376 14.1267428,11.0983483 14.2717677,10.8995238 C14.5360873,10.5556745 14.6834513,10.0995478 14.7091815,9.52880471 C14.7232162,9.19665093 14.6647384,8.8972447 14.5407655,8.6235687 C14.4191317,8.35924914 14.2436984,8.09960781 14.0144655,7.84230558 C14.0004308,7.82827091 13.9863962,7.81189714 13.9723615,7.79786247 C13.4858264,7.32302291 12.8636228,7.08443357 12.1057508,7.08443357 C11.3782873,7.08443357 10.7818139,7.37214424 10.3186699,7.94990469 C9.96078591,8.39433581 9.72219657,9.02823493 9.60056279,9.85394116 C9.53740679,10.2913549 9.13507968,10.5977785 8.6976659,10.5486572 C8.24387834,10.4971967 7.91640278,10.0878523 7.97254144,9.63406471 C8.02868011,9.18027715 8.12458367,8.76157626 8.26259122,8.37562292 C8.48012856,7.76745402 8.77485656,7.25284958 9.14677523,6.83648779 C9.5186939,6.42012601 9.95610769,6.1020069 10.4590166,5.88213045 C10.9619255,5.66459312 11.5116166,5.55465489 12.1080899,5.55465489 C13.3665317,5.55465489 14.3863842,5.92657356 15.1676473,6.66807179 C15.9746406,7.43530024 16.3793069,8.38965759 16.3793069,9.52880471 C16.3793069,9.95218382 16.3231682,10.3474936 16.2108909,10.7100558 C16.0986135,11.0749572 15.9489104,11.4024327 15.7641206,11.6924825 C15.5652962,11.996567 15.2729073,12.3287207 14.8892931,12.6866047 C14.5056788,13.0444887 14.0285002,13.4210856 13.4600962,13.8187345 C13.1957766,14.0035243 13.0226824,14.185975 12.9431526,14.3660865 C12.8636228,14.543859 12.8238579,14.8198741 12.8238579,15.1917928 L12.8238579,15.8397265 C12.8238579,16.2935141 12.4566175,16.6630937 12.0004908,16.6630937 L11.9560477,16.6630937 L11.9560477,16.6630937 Z" fill="#FFFFFF" fill-rule="nonzero"></path>
        <path d="M11.142037,18.3683057 C11.142037,18.8333736 11.5190491,19.2103857 11.984117,19.2103857 C12.449185,19.2103857 12.826197,18.8333736 12.826197,18.3683057 C12.826197,17.9032377 12.449185,17.5262257 11.984117,17.5262257 C11.5190491,17.5262257 11.142037,17.9032377 11.142037,18.3683057 Z" fill="#FFFFFF" fill-rule="nonzero"></path>
    </g>
</svg>