<?xml version="1.0" encoding="UTF-8"?>
<svg width="14px" height="18px" viewBox="0 0 14 18" version="1.1" xmlns="http://www.w3.org/2000/svg" xmlns:xlink="http://www.w3.org/1999/xlink">
  <g stroke="none" stroke-width="1" fill="none" fill-rule="evenodd">
    <path d="M6.64906362,17.0048238 L6.4685328,16.9348945 C0.670501475,14.6938583 -1.11910481e-13,11.7645762 -1.11910481e-13,9.75623627 L-1.11910481e-13,2.08554946 L0.517596787,2.10329386 C4.54782767,2.24053147 6.26396744,0.421594536 6.2801393,0.403850134 L6.6495684,1.95399252e-14 L7.01847331,0.403850134 C7.0320437,0.418468887 8.65843252,2.11059353 12.3505491,2.11059353 C12.3505491,2.11059353 12.3505491,2.11059353 12.3510733,2.11059353 C12.4914365,2.11059353 12.6349254,2.10849682 12.7804917,2.10329386 L13.2980884,2.08554946 L13.2980884,9.75623627 C13.2980884,11.7645762 12.6276064,14.6938389 6.82957504,16.9348945 L6.64906362,17.0048238 Z" fill="#333333" fill-rule="nonzero"></path>
    <path d="M1.00079193,3.11136605 L1.00079193,9.75623627 C1.00079193,10.836315 1.0013161,13.6878634 6.64906362,15.9309964 C12.2973353,13.6878634 12.2973353,10.836315 12.2973353,9.75623627 L12.2973353,3.11136607 C9.16977799,3.09936822 7.37015799,1.98640215 6.64906362,1.41139816 C5.92744508,1.98587796 4.12780567,3.09831985 1.00079193,3.11136605 Z" fill="#fff" fill-rule="nonzero"></path>
  </g>
</svg>