<?xml version="1.0" encoding="UTF-8"?>
<svg width="10px" height="10px" viewBox="0 0 10 10" version="1.1" xmlns="http://www.w3.org/2000/svg" xmlns:xlink="http://www.w3.org/1999/xlink">
    <g stroke="none" stroke-width="1" fill="none" fill-rule="evenodd">
        <circle fill="#FFFFFF" cx="5" cy="5" r="5"></circle>
        <path d="M8.22724481,5.74670931 C7.79142812,7.51544439 6.00425118,8.59598328 4.23549566,8.16016659 C2.46674695,7.72433626 1.38620805,5.93715932 1.82203156,4.16841743 C2.25784144,2.39970279 4.0450252,1.31912982 5.81378072,1.75496015 C7.58252262,2.19077684 8.66306832,3.9779606 8.22724481,5.74670931 Z" fill="#FFFFFF" fill-rule="nonzero" transform="translate(5.024638, 4.957562) scale(1, -1) translate(-5.024638, -4.957562) "></path>
        <path d="M5.02720069,8.83169442 C4.71545346,8.83169442 4.40289109,8.79357941 4.09793202,8.71844174 C3.59095941,8.59351936 3.12221859,8.37237384 2.70672957,8.06190377 C2.30569278,7.76221745 1.96997361,7.39157592 1.71001174,6.96162275 C1.45005962,6.53166497 1.27782857,6.06217965 1.1987813,5.56781547 C1.11688741,5.05566362 1.13883474,4.5378456 1.26375307,4.03085768 C1.37003909,3.59951575 1.54711734,3.19365531 1.78983655,2.82541895 C2.02438607,2.46959445 2.31510993,2.15628868 2.65341705,1.89468004 C2.98835523,1.63568579 3.36112019,1.43407601 3.7608123,1.29577608 C4.16784182,1.15493212 4.59243446,1.08343261 5.02206205,1.08343261 C5.33379895,1.08343261 5.64636829,1.12155193 5.95133049,1.19669038 C6.45829952,1.32160406 6.92703716,1.54274796 7.34252943,1.85322046 C7.7435835,2.15291385 8.07930386,2.52355472 8.33924757,2.95349859 C8.59920646,3.38345466 8.77144006,3.85294153 8.85048845,4.34731274 C8.93238192,4.85946983 8.91043493,5.37728001 8.78551699,5.88427412 C8.67922994,6.31562809 8.50214946,6.72149108 8.25943041,7.08971531 C8.02488578,7.44554428 7.73415883,7.75885338 7.39585016,8.02045717 C7.06092272,8.27944917 6.68815633,8.48105578 6.28845326,8.61935679 C5.88143733,8.76019877 5.45684411,8.83169442 5.02720069,8.83169442 Z M5.02206887,2.23336642 C3.76684731,2.23336642 2.68116341,3.08497065 2.38030329,4.30598409 C2.0211244,5.76364698 2.91539493,7.24272506 4.3730494,7.60189611 C4.5881876,7.65490335 4.80836085,7.68176061 5.02720069,7.68176061 C6.28243044,7.68176061 7.36811329,6.83016187 7.66897281,5.60915088 C7.84324145,4.90190594 7.73207047,4.17180345 7.35519858,3.54847097 C6.97832988,2.92514377 6.3834672,2.48749945 5.67621471,2.31323471 C5.46108754,2.26022443 5.24091865,2.23336642 5.02206887,2.23336642 Z" stroke="#FFFFFF" fill="#000000" fill-rule="nonzero" transform="translate(5.024635, 4.957564) scale(1, -1) translate(-5.024635, -4.957564) "></path>
        <line x1="5.77588154" y1="3.88090246" x2="4.74493667" y2="8.09132326" fill="#000000" fill-rule="nonzero" transform="translate(5.260409, 5.986113) scale(1, -1) translate(-5.260409, -5.986113) "></line>
        <polygon fill="#000000" fill-rule="nonzero" transform="translate(5.260467, 5.986256) scale(1, -1) translate(-5.260467, -5.986256) " points="5.70306142 3.86323071 5.84869485 3.8988877 4.81786583 8.10928124 4.67223921 8.07363107"></polygon>
        <line x1="4.9067834" y1="2.75898865" x2="2.60760976" y2="4.90082039" fill="#000000" fill-rule="nonzero" transform="translate(3.757197, 3.829905) scale(1, -1) translate(-3.757197, -3.829905) "></line>
        <polygon fill="#000000" fill-rule="nonzero" transform="translate(3.757125, 3.830034) scale(1, -1) translate(-3.757125, -3.830034) " points="4.85560826 2.70431052 4.9578086 2.81401436 2.65864178 4.9557575 2.55644144 4.84605365"></polygon>
        <line x1="8.30909504" y1="5.07145188" x2="3.92702729" y2="4.83621936" fill="#000000" fill-rule="nonzero" transform="translate(6.118061, 4.953836) scale(1, -1) translate(-6.118061, -4.953836) "></line>
        <polygon fill="#000000" fill-rule="nonzero" transform="translate(6.118238, 4.953716) scale(1, -1) translate(-6.118238, -4.953716) " points="3.93114365 4.76124564 8.31336816 4.99646453 8.30533988 5.14618707 3.92310856 4.91096818"></polygon>
        <line x1="6.01411274" y1="5.87776183" x2="4.74199933" y2="1.86020361" fill="#000000" fill-rule="nonzero" transform="translate(5.378056, 3.868983) scale(1, -1) translate(-5.378056, -3.868983) "></line>
        <polygon fill="#000000" fill-rule="nonzero" transform="translate(5.377957, 3.868635) scale(1, -1) translate(-5.377957, -3.868635) " points="4.81330648 1.8371138 6.08556301 5.85489011 5.94260794 5.90015649 4.67035141 1.88238018"></polygon>
        <line x1="2.18296995" y1="4.54352812" x2="6.03136876" y2="6.31820603" fill="#000000" fill-rule="nonzero" transform="translate(4.107169, 5.430867) scale(1, -1) translate(-4.107169, -5.430867) "></line>
        <polygon fill="#000000" fill-rule="nonzero" transform="translate(4.107077, 5.430765) scale(1, -1) translate(-4.107077, -5.430765) " points="2.21426522 4.47527416 6.06268448 6.25009519 5.99988947 6.38625553 2.15147022 4.61142769"></polygon>
        <path d="M3.15867785,6.82333985 L2.97112428,5.2243094 L2.89648451,5.20937054 C2.38220472,5.64295185 1.99528689,6.23713954 1.82203156,6.94022688 C1.77857113,7.11667053 1.74966411,7.29638325 1.73560154,7.47755558 L3.15867785,6.82333985 L3.15867785,6.82333985 Z" fill="#000000" fill-rule="nonzero" transform="translate(2.447140, 6.343463) scale(1, -1) translate(-2.447140, -6.343463) "></path>
        <path d="M3.47360019,2.23773694 L1.92498838,1.94587034 C2.22519676,2.76825729 2.84766742,3.45902961 3.67825984,3.82920255 L3.47360019,2.23773694 Z" fill="#000000" fill-rule="nonzero" transform="translate(2.801624, 2.887536) scale(1, -1) translate(-2.801624, -2.887536) "></path>
        <path d="M4.64988545,2.91033511 L4.6804515,2.95735299 C5.58198305,3.05307891 6.45820305,2.77026285 7.12578334,2.21950826 L5.66244299,1.65862632 L4.64988545,2.91033511 L4.64988545,2.91033511 Z" fill="#000000" fill-rule="nonzero" transform="translate(5.887834, 2.317182) scale(1, -1) translate(-5.887834, -2.317182) "></path>
        <path d="M7.14513843,4.66002669 L7.97823883,6.02137116 C8.08380586,5.80866279 8.16806867,5.58133587 8.22724481,5.34120325 C8.38410284,4.70465244 8.3445135,4.06572996 8.14717334,3.48824626 L7.14513843,4.66002669 L7.14513843,4.66002669 Z" fill="#000000" fill-rule="nonzero" transform="translate(7.734469, 4.754809) scale(1, -1) translate(-7.734469, -4.754809) "></path>
        <path d="M4.46603933,7.04354973 L5.50403792,8.25656877 L6.98505683,7.64143124 C6.64481612,7.38984913 6.25029938,7.19985573 5.81378072,7.09229866 C5.35790016,6.97997779 4.90088146,6.96863053 4.46603933,7.04354973 Z" fill="#000000" fill-rule="nonzero" transform="translate(5.725548, 7.626231) scale(1, -1) translate(-5.725548, -7.626231) "></path>
        <polygon fill="#000000" fill-rule="nonzero" transform="translate(5.077538, 4.879963) scale(1, -1) translate(-5.077538, -4.879963) " points="5.49280651 6.17904019 6.34221562 4.81134398 5.30393762 3.5808849 3.81285951 4.18811683 3.92957616 5.79385342"></polygon>
    </g>
</svg>